<?xml version="1.0" encoding="UTF-8" standalone="no"?>
<!DOCTYPE svg PUBLIC "-//W3C//DTD SVG 1.0//EN" "http://www.w3.org/TR/2001/REC-SVG-20010904/DTD/svg10.dtd">
<!-- Generated by Microsoft Visio 11.0, SVG Export, v1.0 Architechture Drawing.svg Page-1 -->
<svg xmlns="http://www.w3.org/2000/svg" xmlns:xlink="http://www.w3.org/1999/xlink" xmlns:ev="http://www.w3.org/2001/xml-events"
		xmlns:v="http://schemas.microsoft.com/visio/2003/SVGExtensions/" width="8.5in" height="11in" viewBox="0 0 612 792"
		xml:space="preserve" color-interpolation-filters="sRGB" class="st32">
	<v:documentProperties v:langID="1033" v:viewMarkup="false">
		<v:userDefs>
			<v:ud v:nameU="msvSubprocessMaster" v:prompt="" v:val="VT4(Rectangle)"/>
			<v:ud v:nameU="msvNoAutoConnect" v:val="VT0(1):26"/>
		</v:userDefs>
	</v:documentProperties>

	<style type="text/css">
	<![CDATA[
		.st1 {visibility:visible}
		.st2 {fill:#cdcdcd;fill-opacity:0.5;stroke:#cdcdcd;stroke-linecap:round;stroke-linejoin:round;stroke-opacity:0.5;stroke-width:0.25}
		.st3 {fill:url(#grad30-7);stroke:#404040;stroke-linecap:round;stroke-linejoin:round;stroke-width:0.25}
		.st4 {fill:#000000;font-family:Calibri;font-size:1.16666em}
		.st5 {font-size:1em}
		.st6 {fill:#000000;font-family:Courier New;font-size:0.75em;font-weight:bold}
		.st7 {fill:#cdcdcd;fill-opacity:0.5;stroke:#cdcdcd;stroke-linecap:round;stroke-linejoin:round;stroke-opacity:0.5;stroke-width:0.72}
		.st8 {fill:#ff00ff;fill-opacity:0;stroke:#404040;stroke-linecap:round;stroke-linejoin:round;stroke-opacity:0;stroke-width:0.72}
		.st9 {fill:url(#grad30-24);stroke:#ffffff;stroke-linecap:round;stroke-linejoin:round;stroke-width:0.72}
		.st10 {fill:url(#grad26-28);stroke:#000000;stroke-linecap:round;stroke-linejoin:round;stroke-width:0.72}
		.st11 {stroke:#404040;stroke-linecap:round;stroke-linejoin:round;stroke-width:1.5}
		.st12 {fill:url(#grad30-37);stroke:#404040;stroke-linecap:round;stroke-linejoin:round;stroke-width:0.25}
		.st13 {fill:url(#grad30-44);stroke:#404040;stroke-linecap:round;stroke-linejoin:round;stroke-width:0.25}
		.st14 {fill:url(#grad30-49);stroke:#404040;stroke-linecap:round;stroke-linejoin:round;stroke-width:2.16}
		.st15 {fill:#000000;font-family:Calibri;font-size:1.00001em}
		.st16 {fill:#ffffff;stroke:#404040;stroke-dasharray:7.5,4.5;stroke-linecap:round;stroke-linejoin:round;stroke-width:0.5}
		.st17 {fill:#000000;font-family:Courier New;font-size:0.666664em;font-weight:bold}
		.st18 {fill:url(#grad30-64);stroke:#404040;stroke-linecap:round;stroke-linejoin:round;stroke-width:0.25}
		.st19 {fill:#cdcdcd;stroke:#404040;stroke-linecap:round;stroke-linejoin:round;stroke-width:0.75}
		.st20 {fill:#000000;font-family:Calibri;font-size:0.833336em}
		.st21 {fill:#ffffff;stroke:#404040;stroke-linecap:round;stroke-linejoin:round;stroke-width:0.75}
		.st22 {fill:#ffffff;stroke:#404040;stroke-linecap:round;stroke-linejoin:round;stroke-width:0.5}
		.st23 {fill:#000000;font-family:Calibri;font-size:0.666664em}
		.st24 {marker-end:url(#mrkr5-94);marker-start:url(#mrkr5-92);stroke:#404040;stroke-linecap:round;stroke-linejoin:round;stroke-width:1}
		.st25 {fill:#404040;fill-opacity:1;stroke:#404040;stroke-opacity:1;stroke-width:0.28409090909091}
		.st26 {fill:#ffffff;stroke:none;stroke-linecap:butt;stroke-width:7.2}
		.st27 {fill:url(#grad28-153)}
		.st28 {stroke:#ffffff;stroke-linecap:round;stroke-linejoin:round;stroke-width:1.5}
		.st29 {fill:url(#grad28-158)}
		.st30 {fill:#ffffff;visibility:hidden}
		.st31 {stroke:#797979;stroke-linecap:round;stroke-linejoin:round;stroke-width:0.75}
		.st32 {fill:none;fill-rule:evenodd;font-size:12;overflow:visible;stroke-linecap:square;stroke-miterlimit:3}
	]]>
	</style>

	<defs id="Patterns_And_Gradients">
		<linearGradient id="grad30-7" v:fillPattern="30" v:foreground="#f0f0f0" v:background="#ffffff" x1="0" y1="1" x2="0" y2="0">
			<stop offset="0" style="stop-color:#f0f0f0;stop-opacity:1"/>
			<stop offset="1" style="stop-color:#ffffff;stop-opacity:1"/>
		</linearGradient>
		<linearGradient id="grad30-24" v:fillPattern="30" v:foreground="#ffffff" v:background="#f2f2f2" x1="0" y1="1" x2="0" y2="0">
			<stop offset="0" style="stop-color:#ffffff;stop-opacity:1"/>
			<stop offset="1" style="stop-color:#f2f2f2;stop-opacity:1"/>
		</linearGradient>
		<linearGradient id="grad26-28" v:fillPattern="26" v:foreground="#f0f0f0" v:background="#ffffff" x1="0" y1="0" x2="1" y2="0">
			<stop offset="0" style="stop-color:#ffffff;stop-opacity:1"/>
			<stop offset="0.5" style="stop-color:#f0f0f0;stop-opacity:1"/>
			<stop offset="1" style="stop-color:#ffffff;stop-opacity:1"/>
		</linearGradient>
		<linearGradient id="grad30-37" v:fillPattern="30" v:foreground="#f0f0f0" v:background="#3e75a6" x1="0" y1="1" x2="0" y2="0">
			<stop offset="0" style="stop-color:#f0f0f0;stop-opacity:1"/>
			<stop offset="1" style="stop-color:#3e75a6;stop-opacity:1"/>
		</linearGradient>
		<linearGradient id="grad30-44" v:fillPattern="30" v:foreground="#f0f0f0" v:foregroundOpacity="0.65" v:background="#ffffff"
				v:backgroundOpacity="0.65" x1="0" y1="1" x2="0" y2="0">
			<stop offset="0" style="stop-color:#f0f0f0;stop-opacity:0.65"/>
			<stop offset="1" style="stop-color:#ffffff;stop-opacity:0.65"/>
		</linearGradient>
		<linearGradient id="grad30-49" v:fillPattern="30" v:foreground="#f0f0f0" v:background="#bfbfbf" x1="0" y1="1" x2="0" y2="0">
			<stop offset="0" style="stop-color:#f0f0f0;stop-opacity:1"/>
			<stop offset="1" style="stop-color:#bfbfbf;stop-opacity:1"/>
		</linearGradient>
		<linearGradient id="grad30-64" v:fillPattern="30" v:foreground="#f0f0f0" v:foregroundOpacity="0.5" v:background="#ffffff"
				v:backgroundOpacity="0.5" x1="0" y1="1" x2="0" y2="0">
			<stop offset="0" style="stop-color:#f0f0f0;stop-opacity:0.5"/>
			<stop offset="1" style="stop-color:#ffffff;stop-opacity:0.5"/>
		</linearGradient>
		<linearGradient id="grad28-153" v:fillPattern="28" v:foreground="#e9e9e9" v:background="#efefef" x1="0" y1="0" x2="0"
				y2="1">
			<stop offset="0" style="stop-color:#e9e9e9;stop-opacity:1"/>
			<stop offset="1" style="stop-color:#efefef;stop-opacity:1"/>
		</linearGradient>
		<linearGradient id="grad28-158" v:fillPattern="28" v:foreground="#ffffff" v:background="#fefefe" x1="0" y1="0" x2="0"
				y2="1">
			<stop offset="0" style="stop-color:#ffffff;stop-opacity:1"/>
			<stop offset="1" style="stop-color:#fefefe;stop-opacity:1"/>
		</linearGradient>
	</defs>
	<defs id="Markers">
		<g id="lend5">
			<path d="M 2 1 L 0 0 L 1.98117 -0.993387 C 1.67173 -0.364515 1.67301 0.372641 1.98465 1.00043 " style="stroke:none"/>
		</g>
		<marker id="mrkr5-92" class="st25" v:arrowType="5" v:arrowSize="2" v:setback="5.8" refX="5.8" orient="auto"
				markerUnits="strokeWidth">
			<use xlink:href="#lend5" transform="scale(3.52) "/>
		</marker>
		<marker id="mrkr5-94" class="st25" v:arrowType="5" v:arrowSize="2" v:setback="0" refX="-0" orient="auto"
				markerUnits="strokeWidth">
			<use xlink:href="#lend5" transform="scale(-3.52,-3.52) "/>
		</marker>
	</defs>
	<g v:mID="0" v:index="1" v:groupContext="foregroundPage">
		<v:userDefs>
			<v:ud v:nameU="msvThemeColors" v:val="VT0(36):26"/>
			<v:ud v:nameU="msvThemeEffects" v:val="VT0(16):26"/>
			<v:ud v:nameU="msvThemeOrder" v:val="VT0(0):26"/>
			<v:ud v:nameU="DBNotation" v:prompt="0 = IDEF1X, 2 = Relational" v:val="VT0(2):26"/>
		</v:userDefs>
		<title>Page-1</title>
		<v:pageProperties v:drawingScale="1" v:pageScale="1" v:drawingUnits="0" v:shadowOffsetX="9" v:shadowOffsetY="-9"/>
		<v:layer v:name="Connector" v:index="0"/>
		<v:layer v:name="Flowchart" v:index="1"/>
		<v:layer v:name="Entities" v:index="2"/>
		<g id="group12-1" transform="translate(58.5,-603)" v:mID="12" v:groupContext="group">
			<v:userDefs>
				<v:ud v:nameU="msvThemeColors" v:val="VT0(36):26"/>
				<v:ud v:nameU="msvThemeEffects" v:val="VT0(16):26"/>
			</v:userDefs>
			<title>Sheet.12</title>
			<g id="shape2-2" v:mID="2" v:groupContext="shape">
				<title>Shadowed box.2</title>
				<desc>WPF UI Code Behind</desc>
				<v:userDefs>
					<v:ud v:nameU="visVersion" v:val="VT0(14):26"/>
					<v:ud v:nameU="msvThemeColors" v:val="VT0(36):26"/>
					<v:ud v:nameU="msvThemeEffects" v:val="VT0(16):26"/>
				</v:userDefs>
				<v:textBlock v:margins="rect(4,4,4,4)"/>
				<v:textRect cx="164.25" cy="760.5" width="328.5" height="63"/>
				<g id="shadow2-3" v:groupContext="shadow" v:shadowOffsetX="1.44" v:shadowOffsetY="-1.44" v:shadowType="1"
						transform="matrix(1,0,0,1,1.44,1.44)" class="st1">
					<rect x="0" y="729" width="328.5" height="63" class="st2"/>
				</g>
				<rect x="0" y="729" width="328.5" height="63" class="st3"/>
				<text x="143.35" y="756.3" class="st4" v:langID="1033"><v:paragraph v:horizAlign="1"/><v:tabList/>WPF UI<v:newlineChar/><tspan
							x="128.15" dy="1.2em" class="st5">Code Behind</tspan></text>			</g>
			<g id="shape11-10" v:mID="11" v:groupContext="shape" transform="translate(9,-18.7222)">
				<title>Shadowed box.11</title>
				<desc>Click_EventHandler</desc>
				<v:userDefs>
					<v:ud v:nameU="visVersion" v:val="VT0(14):26"/>
					<v:ud v:nameU="msvThemeColors" v:val="VT0(36):26"/>
					<v:ud v:nameU="msvThemeEffects" v:val="VT0(16):26"/>
				</v:userDefs>
				<v:textBlock v:margins="rect(4,4,4,4)"/>
				<v:textRect cx="54" cy="778.861" width="108" height="26.2778"/>
				<g id="shadow11-11" v:groupContext="shadow" v:shadowOffsetX="1.44" v:shadowOffsetY="-1.44" v:shadowType="1"
						transform="matrix(1,0,0,1,1.44,1.44)" class="st1">
					<rect x="0" y="765.722" width="108" height="26.2778" class="st2"/>
				</g>
				<rect x="0" y="765.722" width="108" height="26.2778" class="st3"/>
				<text x="5.39" y="781.56" class="st6" v:langID="1033"><v:paragraph v:horizAlign="1"/><v:tabList/>Click_EventHandler</text>			</g>
		</g>
		<g id="group5-16" transform="translate(168.75,-36)" v:mID="5" v:groupContext="group">
			<v:custProps>
				<v:cp v:nameU="ShapeClass" v:lbl="ShapeClass" v:type="0" v:invis="true" v:ask="false" v:langID="1033"
						v:val="VT4(Connectivity)"/>
				<v:cp v:nameU="ShapeType" v:lbl="ShapeType" v:type="0" v:invis="true" v:ask="false" v:langID="1033"
						v:val="VT4(Conceptual)"/>
				<v:cp v:nameU="SubShapeType" v:lbl="SubShapeType" v:type="0" v:invis="true" v:ask="false" v:langID="1033"
						v:val="VT4(Database)"/>
				<v:cp v:nameU="Manufacturer" v:lbl="Manufacturer" v:type="0" v:sortKey="Equipment" v:invis="false" v:ask="false"
						v:langID="1033"/>
				<v:cp v:nameU="ProductNumber" v:lbl="Product Number" v:type="0" v:sortKey="Equipment" v:invis="false" v:ask="false"
						v:langID="1033"/>
				<v:cp v:nameU="PartNumber" v:lbl="Part Number" v:type="0" v:sortKey="Equipment" v:invis="false" v:ask="false"
						v:langID="1033"/>
				<v:cp v:nameU="ProductDescription" v:lbl="Product Description" v:type="0" v:sortKey="Equipment" v:invis="false"
						v:ask="false" v:langID="1033"/>
				<v:cp v:nameU="AssetNumber" v:lbl="Asset Number" v:type="0" v:sortKey="Asset" v:invis="false" v:ask="false"
						v:langID="1033"/>
				<v:cp v:nameU="SerialNumber" v:lbl="Serial Number" v:type="0" v:sortKey="Asset" v:invis="false" v:ask="false"
						v:langID="1033"/>
				<v:cp v:nameU="Location" v:lbl="Location" v:type="0" v:sortKey="Asset" v:invis="false" v:ask="false"
						v:langID="1033"/>
				<v:cp v:nameU="Building" v:lbl="Building" v:type="0" v:sortKey="Asset" v:invis="false" v:ask="false"
						v:langID="1033"/>
				<v:cp v:nameU="Room" v:lbl="Room" v:type="0" v:sortKey="Asset" v:invis="false" v:ask="false" v:langID="1033"/>
				<v:cp v:nameU="NetworkName" v:lbl="Network Name" v:type="0" v:sortKey="Network" v:invis="false" v:ask="false"
						v:langID="1033"/>
				<v:cp v:nameU="IPAddress" v:lbl="IP Address" v:type="0" v:sortKey="Network" v:invis="false" v:ask="false"
						v:langID="1033"/>
				<v:cp v:nameU="SubnetMask" v:lbl="Subnet Mask" v:type="0" v:sortKey="Network" v:invis="false" v:ask="false"
						v:langID="1033"/>
				<v:cp v:nameU="AdminInterface" v:lbl="Administrative Interface" v:type="0" v:sortKey="Network" v:invis="false"
						v:ask="false" v:langID="1033"/>
				<v:cp v:nameU="NumberOfPorts" v:lbl="Number of Ports" v:type="0" v:sortKey="Network" v:invis="false" v:ask="false"
						v:langID="1033"/>
				<v:cp v:nameU="MACAddress" v:lbl="MAC Address" v:type="0" v:sortKey="Network" v:invis="false" v:ask="false"
						v:langID="1033"/>
				<v:cp v:nameU="CommunityString" v:lbl="Community String" v:type="0" v:sortKey="Network" v:invis="false"
						v:ask="false" v:langID="1033"/>
				<v:cp v:nameU="NetworkDescription" v:lbl="Network Description" v:type="0" v:sortKey="Network" v:invis="false"
						v:ask="false" v:langID="1033"/>
			</v:custProps>
			<v:userDefs>
				<v:ud v:nameU="HasText" v:val="VT0(0):5"/>
				<v:ud v:nameU="ShapeClass" v:val="VT0(4):26"/>
				<v:ud v:nameU="ShapeType" v:val="VT0(7):26"/>
				<v:ud v:nameU="SubShapeType" v:val="VT0(16):26"/>
				<v:ud v:nameU="visLegendShape" v:val="VT0(2):26"/>
				<v:ud v:nameU="SolSH" v:val="VT14({BF0433D9-CD73-4EB5-8390-8653BE590246}):41"/>
				<v:ud v:nameU="visVersion" v:prompt="" v:val="VT0(14):26"/>
				<v:ud v:nameU="msvThemeColors" v:val="VT0(36):26"/>
				<v:ud v:nameU="msvThemeEffects" v:val="VT0(16):26"/>
			</v:userDefs>
			<title>Relational database</title>
			<g id="shape25-17" v:mID="25" v:groupContext="shape">
				<title>Sheet.25</title>
				<v:userDefs>
					<v:ud v:nameU="msvThemeColors" v:val="VT0(36):26"/>
					<v:ud v:nameU="msvThemeEffects" v:val="VT0(16):26"/>
				</v:userDefs>
				<g id="shadow25-18" v:groupContext="shadow" v:shadowOffsetX="1.44" v:shadowOffsetY="-1.44" v:shadowType="1"
						transform="matrix(1,0,0,1,1.44,1.44)" class="st1">
					<path d="M180 666 A90 54 -180 1 0 0 666 L0 738 A90 54 -180 1 0 180 738 L180 666 Z" class="st7"/>
				</g>
				<path d="M180 666 A90 54 -180 1 0 0 666 L0 738 A90 54 -180 1 0 180 738 L180 666 Z" class="st8"/>
			</g>
			<g id="shape26-21" v:mID="26" v:groupContext="shape" transform="translate(0,-72)">
				<title>Sheet.26</title>
				<v:userDefs>
					<v:ud v:nameU="msvThemeColors" v:val="VT0(36):26"/>
					<v:ud v:nameU="msvThemeEffects" v:val="VT0(16):26"/>
				</v:userDefs>
				<ellipse cx="90" cy="738" rx="90" ry="54" class="st9"/>
			</g>
			<g id="shape27-25" v:mID="27" v:groupContext="shape">
				<title>Sheet.27</title>
				<v:userDefs>
					<v:ud v:nameU="msvThemeColors" v:val="VT0(36):26"/>
					<v:ud v:nameU="msvThemeEffects" v:val="VT0(16):26"/>
				</v:userDefs>
				<path d="M0 666 L0 738 A90 54 -180 1 0 180 738 L180 666 A90 54 0 1 1 0 666 Z" class="st10"/>
			</g>
			<g id="shape28-29" v:mID="28" v:groupContext="shape">
				<title>Sheet.28</title>
				<v:userDefs>
					<v:ud v:nameU="msvThemeColors" v:val="VT0(36):26"/>
					<v:ud v:nameU="msvThemeEffects" v:val="VT0(16):26"/>
				</v:userDefs>
				<path d="M180 666 A90 54 -180 1 0 0 666 L0 738 A90 54 -180 1 0 180 738 L180 666" class="st11"/>
			</g>
		</g>
		<g id="shape3-32" v:mID="3" v:groupContext="shape" transform="translate(45,-248.856)">
			<title>Shadowed box.3</title>
			<desc>DataLayer</desc>
			<v:userDefs>
				<v:ud v:nameU="visVersion" v:val="VT0(14):26"/>
				<v:ud v:nameU="msvThemeColors" v:val="VT0(36):26"/>
				<v:ud v:nameU="msvThemeEffects" v:val="VT0(16):26"/>
			</v:userDefs>
			<v:textBlock v:margins="rect(4,4,4,4)" v:verticalAlign="0"/>
			<v:textRect cx="227.25" cy="749.928" width="454.5" height="84.1438"/>
			<g id="shadow3-33" v:groupContext="shadow" v:shadowOffsetX="1.44" v:shadowOffsetY="-1.44" v:shadowType="1"
					transform="matrix(1,0,0,1,1.44,1.44)" class="st1">
				<rect x="0" y="707.856" width="454.5" height="84.1438" class="st2"/>
			</g>
			<rect x="0" y="707.856" width="454.5" height="84.1438" class="st12"/>
			<text x="393.01" y="741.26" class="st4" v:langID="1033"><v:paragraph v:horizAlign="2"/><v:tabList/><v:newlineChar/>DataLayer</text>		</g>
		<g id="shape17-39" v:mID="17" v:groupContext="shape" transform="translate(45,-321.428)">
			<title>Shadowed box.17</title>
			<desc>Business Object Cache</desc>
			<v:userDefs>
				<v:ud v:nameU="visVersion" v:val="VT0(14):26"/>
				<v:ud v:nameU="msvThemeColors" v:val="VT0(36):26"/>
				<v:ud v:nameU="msvThemeEffects" v:val="VT0(16):26"/>
			</v:userDefs>
			<v:textBlock v:margins="rect(4,4,4,4)" v:verticalAlign="0"/>
			<v:textRect cx="228.043" cy="668.515" width="456.09" height="246.971"/>
			<g id="shadow17-40" v:groupContext="shadow" v:shadowOffsetX="1.44" v:shadowOffsetY="-1.44" v:shadowType="1"
					transform="matrix(1,0,0,1,1.44,1.44)" class="st1">
				<rect x="0" y="545.029" width="456.086" height="246.971" class="st2"/>
			</g>
			<rect x="0" y="545.029" width="456.086" height="246.971" class="st13"/>
			<text x="164.43" y="561.63" class="st4" v:langID="1033"><v:paragraph v:horizAlign="1"/><v:tabList/>Business Object Cache</text>		</g>
		<g id="shape36-46" v:mID="36" v:groupContext="shape" transform="translate(417.836,1055.17) rotate(180)">
			<title>Cloud.32</title>
			<desc>BO-1</desc>
			<v:userDefs>
				<v:ud v:nameU="msvThemeColors" v:val="VT0(36):26"/>
				<v:ud v:nameU="msvThemeEffects" v:val="VT0(16):26"/>
			</v:userDefs>
			<v:textBlock v:margins="rect(0,0,0,0)" v:verticalAlign="0"/>
			<v:textRect cx="182.25" cy="697.632" width="364.5" height="188.735" transform="rotate(180)"/>
			<path d="M24.59 691.69 A52.4694 47.9347 0 0 1 103.75 660.21 A36.6126 33.4483 0 0 1 168.01 648.3 A20.8398 19.0388 0 0
						 1 201.53 627.03 A43.742 39.9616 0 0 1 243.44 621.92 A29.135 26.617 0 0 1 299.32 622.77 A37.4576 34.2203
						 0 0 1 342.16 668.71 A22.4823 20.5392 0 0 1 353.33 707 A47.2118 43.1315 0 0 1 299.32 757.2 A20.6645 18.4411
						 12.49 0 1 264.26 761.8 A38.4016 32.9303 15.54 0 1 218.7 776.9 A52.0554 40.0886 171.64 0 1 179.27 779.9 A52.5527
						 48.0109 0 0 1 102.82 773.36 A17.0895 15.6126 0 0 1 73.95 761.45 A39.3649 35.9628 0 0 1 23.66 747.84 A31.6423
						 28.9077 0 0 1 24.59 691.69 Z" class="st14"/>
			<text x="-194.36" y="-766.8" transform="rotate(180)" class="st15" v:langID="1033"><v:paragraph v:horizAlign="1"/><v:tabList/><v:newlineChar/>BO-1</text>		</g>
		<g id="shape22-51" v:mID="22" v:groupContext="shape" transform="translate(84.1279,-410.162)">
			<title>Sheet.22</title>
			<desc>BusinessMethod(val1, val2) { Proc p = new Proc(“SPROC1”); p[“...</desc>
			<v:userDefs>
				<v:ud v:nameU="msvThemeColors" v:val="VT0(36):26"/>
				<v:ud v:nameU="msvThemeEffects" v:val="VT0(16):26"/>
			</v:userDefs>
			<v:textBlock v:margins="rect(4,4,4,4)" v:verticalAlign="0"/>
			<v:textRect cx="85.6385" cy="758.25" width="171.28" height="67.5"/>
			<path d="M0 792 L171.28 792 L171.28 724.5 L0 724.5 L0 792 Z" class="st16"/>
			<text x="4" y="735.7" class="st17" v:langID="1033"><v:paragraph/><v:tabList/>BusinessMethod(val1, val2)<v:newlineChar/><tspan
						x="4" dy="1.2em" class="st5">{<v:newlineChar/></tspan><tspan x="4" dy="1.2em" class="st5">  </tspan>Proc p = new Proc(“SPROC1”);<v:newlineChar/><tspan
						x="4" dy="1.2em" class="st5">  </tspan>p[“@Parm1”] = val1;<v:newlineChar/><tspan x="4" dy="1.2em"
						class="st5">  </tspan>TableCache(p);<v:newlineChar/><tspan x="4" dy="1.2em" class="st5">}</tspan></text>		</g>
		<g id="shape16-59" v:mID="16" v:groupContext="shape" transform="translate(327.836,-420.958)">
			<title>Shadowed box.16</title>
			<desc>ADO.Net DataSet Cache</desc>
			<v:userDefs>
				<v:ud v:nameU="visVersion" v:val="VT0(14):26"/>
				<v:ud v:nameU="msvThemeColors" v:val="VT0(36):26"/>
				<v:ud v:nameU="msvThemeEffects" v:val="VT0(16):26"/>
			</v:userDefs>
			<v:textBlock v:margins="rect(4,4,4,4)" v:verticalAlign="0"/>
			<v:textRect cx="81" cy="736.875" width="162" height="110.25"/>
			<g id="shadow16-60" v:groupContext="shadow" v:shadowOffsetX="1.44" v:shadowOffsetY="-1.44" v:shadowType="1"
					transform="matrix(1,0,0,1,1.44,1.44)" class="st1">
				<rect x="0" y="681.75" width="162" height="110.25" class="st2"/>
			</g>
			<rect x="0" y="681.75" width="162" height="110.25" class="st18"/>
			<text x="13.12" y="698.35" class="st4" v:langID="1033"><v:paragraph v:horizAlign="1"/><v:tabList/>ADO.Net DataSet Cache</text>		</g>
		<g id="group32-66" transform="translate(340.172,-438.958)" v:mID="32" v:groupContext="group" v:layerMember="2">
			<v:userDefs>
				<v:ud v:nameU="DBShapeType" v:prompt="Entity" v:val="VT0(1):26"/>
				<v:ud v:nameU="DBShapeVersion" v:prompt="Identifies the shape&#39;s version to the add-on." v:val="VT0(10):26"/>
				<v:ud v:nameU="DBNotation" v:prompt="0 = IDEF1X, 2 = Relational" v:val="VT0(2):26"/>
				<v:ud v:nameU="DBDependent" v:prompt="Set for dependent tables." v:val="VT0(0):5"/>
				<v:ud v:nameU="ManualEdits" v:prompt="Set to allow free-from edits (manual edits are not maintained in the model)"
						v:val="VT0(1):5"/>
				<v:ud v:nameU="RefShapeGuid" v:prompt="Unique identifier used by the add-on." v:val="VT0(-1):26"/>
				<v:ud v:nameU="Override" v:prompt="Set if this shape&#39;s Database | Document | Options have have local overrides."
						v:val="VT0(0):5"/>
				<v:ud v:nameU="OverrideDBNotation" v:prompt="Conditionally sets the DBNotation setting." v:val="VT0(0):26"/>
				<v:ud v:nameU="visDescription" v:val="VT4(Use to add a table to your Entity Relationship diagram.)"/>
				<v:ud v:nameU="visVersion" v:val="VT0(14):26"/>
				<v:ud v:nameU="msvThemeColors" v:val="VT0(36):26"/>
			</v:userDefs>
			<title>Entity</title>
			<g id="shape33-67" v:mID="33" v:groupContext="shape" v:layerMember="2" transform="translate(0,-20)">
				<title>Sheet.33</title>
				<desc>DataTable-1</desc>
				<v:userDefs>
					<v:ud v:nameU="Width" v:prompt="width of this shape&#39;s text" v:val="VT0(0.82866752080252):1"/>
					<v:ud v:nameU="Height" v:prompt="height of this shape&#39;s text" v:val="VT0(0.27782828640408):1"/>
					<v:ud v:nameU="SubShapeID" v:prompt="Subshape id within the Entity group shape." v:val="VT0(5):26"/>
					<v:ud v:nameU="msvThemeColors" v:val="VT0(36):26"/>
				</v:userDefs>
				<v:textBlock v:margins="rect(4,4,4,4)"/>
				<v:textRect cx="29.832" cy="781.998" width="59.67" height="20.0036"/>
				<rect x="0" y="771.996" width="59.6641" height="20.0036" class="st19"/>
				<text x="5.13" y="785" class="st20" v:langID="1033"><v:paragraph v:horizAlign="1"/><v:tabList/>DataTable-1</text>			</g>
			<g id="shape34-70" v:mID="34" v:groupContext="shape" v:layerMember="2">
				<title>Sheet.34</title>
				<v:userDefs>
					<v:ud v:nameU="Width" v:prompt="width of this shape&#39;s text" v:val="VT0(0.11111111111111):1"/>
					<v:ud v:nameU="Height" v:prompt="height of this shape&#39;s text" v:val="VT0(0.27777777777778):1"/>
					<v:ud v:nameU="SubShapeID" v:prompt="Subshape ID within the Entity group shape." v:val="VT0(8):26"/>
					<v:ud v:nameU="PKCount" v:prompt="specifies the number of columns in the tables primary key" v:val="VT0(0):26"/>
					<v:ud v:nameU="DBHidePKSeperatorLine"
							v:prompt="Set to hide the horizontal line seperating the PK columns from the rest." v:val="VT0(1):5"/>
					<v:ud v:nameU="DBHideTabLine1" v:prompt="Set to hide the 1st vertical tab line." v:val="VT0(1):5"/>
					<v:ud v:nameU="DBHideTabLine2" v:prompt="Set to hide the 2nd vertical tab line." v:val="VT0(1):5"/>
					<v:ud v:nameU="LineCount" v:prompt="Indicates the number of lines in the text." v:val="VT0(0):26"/>
					<v:ud v:nameU="LineHeight" v:prompt="Indicates the height of one text line." v:val="VT0(0):26"/>
					<v:ud v:nameU="msvThemeColors" v:val="VT0(36):26"/>
				</v:userDefs>
				<path d="M0 792 L59.66 792 L59.66 772 L0 772 L0 792 Z" class="st21"/>
			</g>
		</g>
		<g id="shape1-72" v:mID="1" v:groupContext="shape" transform="translate(58.5,-666)">
			<title>Shadowed box</title>
			<desc>WPF UI XAML</desc>
			<v:userDefs>
				<v:ud v:nameU="visVersion" v:val="VT0(14):26"/>
				<v:ud v:nameU="msvThemeColors" v:val="VT0(36):26"/>
				<v:ud v:nameU="msvThemeEffects" v:val="VT0(16):26"/>
			</v:userDefs>
			<v:textBlock v:margins="rect(4,4,4,4)"/>
			<v:textRect cx="164.25" cy="760.5" width="328.5" height="63"/>
			<g id="shadow1-73" v:groupContext="shadow" v:shadowOffsetX="1.44" v:shadowOffsetY="-1.44" v:shadowType="1"
					transform="matrix(1,0,0,1,1.44,1.44)" class="st1">
				<rect x="0" y="729" width="328.5" height="63" class="st2"/>
			</g>
			<rect x="0" y="729" width="328.5" height="63" class="st3"/>
			<text x="143.35" y="756.3" class="st4" v:langID="1033"><v:paragraph v:horizAlign="1"/><v:tabList/>WPF UI<v:newlineChar/><tspan
						x="147.64" dy="1.2em" class="st5">XAML</tspan></text>		</g>
		<g id="shape19-79" v:mID="19" v:groupContext="shape" transform="translate(265.5,-701.1)">
			<title>Text box</title>
			<desc>Enter Text</desc>
			<v:userDefs>
				<v:ud v:nameU="visVersion" v:prompt="" v:val="VT0(14):26"/>
				<v:ud v:nameU="msvThemeColors" v:val="VT0(36):26"/>
				<v:ud v:nameU="msvThemeEffects" v:val="VT0(16):26"/>
			</v:userDefs>
			<v:textBlock v:margins="rect(7.2,7.2,7.2,7.2)"/>
			<v:textRect cx="54" cy="786.6" width="108" height="10.8"/>
			<rect x="0" y="781.2" width="108" height="10.8" class="st22"/>
			<text x="7.2" y="789" class="st23" v:langID="1033"><v:paragraph/><v:tabList/>Enter Text</text>		</g>
		<g id="shape20-82" v:mID="20" v:groupContext="shape" transform="translate(265.5,-688.5)">
			<title>Text box.20</title>
			<desc>Enter Text</desc>
			<v:userDefs>
				<v:ud v:nameU="visVersion" v:prompt="" v:val="VT0(14):26"/>
				<v:ud v:nameU="msvThemeColors" v:val="VT0(36):26"/>
				<v:ud v:nameU="msvThemeEffects" v:val="VT0(16):26"/>
			</v:userDefs>
			<v:textBlock v:margins="rect(7.2,7.2,7.2,7.2)"/>
			<v:textRect cx="54" cy="786.6" width="108" height="10.8"/>
			<rect x="0" y="781.2" width="108" height="10.8" class="st22"/>
			<text x="7.2" y="789" class="st23" v:langID="1033"><v:paragraph/><v:tabList/>Enter Text</text>		</g>
		<g id="shape21-85" v:mID="21" v:groupContext="shape" v:layerMember="0"
				transform="translate(1161.92,344.559) rotate(-89.1667) scale(1,-1)">
			<title>Line-curve connector</title>
			<desc>DataBound</desc>
			<v:userDefs>
				<v:ud v:nameU="AntiScale" v:val="VT0(1):26"/>
				<v:ud v:nameU="Scale" v:val="VT0(1):26"/>
				<v:ud v:nameU="visVersion" v:val="VT0(14):26"/>
				<v:ud v:nameU="msvThemeColors" v:val="VT0(36):26"/>
				<v:ud v:nameU="msvThemeEffects" v:val="VT0(16):26"/>
			</v:userDefs>
			<v:textBlock v:margins="rect(4,4,4,4)"/>
			<v:textRect cx="181.316" cy="705.632" width="46.26" height="17.6036" transform="rotate(89.1667)"/>
			<path d="M4.73 788.65 L5.03 788.44 L40.13 764.69 L72.4 744.95 L101.84 729.2 L128.45 717.47 L152.22 709.73 L173.16 706
						 L191.26 706.28 L206.53 710.56 L218.96 718.84 L228.56 731.12 L235.33 747.41 L239.27 767.7 L240.37 792"
					class="st24"/>
			<rect v:rectContext="textBkgnd" x="-721.143" y="186.759" width="36.4449" height="9.59985" transform="rotate(-89.1667)"
					class="st26"/>
			<text x="-721.14" y="-189.16" transform="rotate(-89.1667) scale(1,-1)" class="st23" v:langID="1033"><v:paragraph
						v:horizAlign="1"/><v:tabList/>DataBound</text>		</g>
		<g id="shape24-97" v:mID="24" v:groupContext="shape" transform="translate(878.128,-19.0663) rotate(77.8378) scale(-1,1)">
			<title>60 degree single</title>
			<desc>1</desc>
			<v:userDefs>
				<v:ud v:nameU="visVersion" v:val="VT0(14):26"/>
				<v:ud v:nameU="msvThemeColors" v:val="VT0(36):26"/>
				<v:ud v:nameU="msvThemeEffects" v:val="VT0(16):26"/>
			</v:userDefs>
			<v:textBlock v:margins="rect(4,4,4,4)"/>
			<v:textRect cx="26.6993" cy="774" width="53.4" height="36" transform="rotate(-87.8378)"/>
			<g id="shadow24-98" v:groupContext="shadow" v:shadowOffsetX="1.44" v:shadowOffsetY="-1.44" v:shadowType="1"
					transform="matrix(1,-7.15573E-018,4.07931E-018,1,-1.71106,-1.1043)" class="st1">
				<path d="M0 774 L10.39 756 L10.39 767.88 L53.4 767.88 L53.4 780.12 L10.39 780.12 L10.39 792 L0 774 Z" class="st2"/>
			</g>
			<path d="M0 774 L10.39 756 L10.39 767.88 L53.4 767.88 L53.4 780.12 L10.39 780.12 L10.39 792 L0 774 Z" class="st3"/>
			<text x="-778" y="6.72" transform="rotate(87.8378) scale(-1,1)" class="st4" v:langID="1033"><v:paragraph
						v:horizAlign="1"/><v:tabList/>1</text>		</g>
		<g id="shape30-103" v:mID="30" v:groupContext="shape" transform="translate(908.645,132.224) rotate(76.3913) scale(-1,1)">
			<title>45 degree single</title>
			<desc>2</desc>
			<v:userDefs>
				<v:ud v:nameU="visVersion" v:val="VT0(14):26"/>
				<v:ud v:nameU="msvThemeColors" v:val="VT0(36):26"/>
				<v:ud v:nameU="msvThemeEffects" v:val="VT0(16):26"/>
			</v:userDefs>
			<v:textBlock v:margins="rect(4,4,4,4)"/>
			<v:textRect cx="74.1109" cy="774" width="148.23" height="36" transform="rotate(-92.6659)"/>
			<g id="shadow30-104" v:groupContext="shadow" v:shadowOffsetX="1.44" v:shadowOffsetY="-1.44" v:shadowType="1"
					transform="matrix(1,-1.97867E-018,-2.71051E-019,1,-1.73839,-1.06076)" class="st1">
				<path d="M0 774 L18 756 L18 767.88 L148.22 767.88 L148.22 780.12 L18 780.12 L18 792 L0 774 Z" class="st2"/>
			</g>
			<path d="M0 774 L18 756 L18 767.88 L148.22 767.88 L148.22 780.12 L18 780.12 L18 792 L0 774 Z" class="st3"/>
			<text x="-773.26" y="-105.83" transform="rotate(-87.3341) scale(1,-1)" class="st4" v:langID="1033"><v:paragraph
						v:horizAlign="1"/><v:tabList/>2</text>		</g>
		<g id="shape31-109" v:mID="31" v:groupContext="shape" transform="translate(184.361,-72)">
			<title>Sheet.31</title>
			<desc>CREATE PROCEDURE SPROC1 @Parm1 varchar(50) AS BEGIN UPDATE ta...</desc>
			<v:userDefs>
				<v:ud v:nameU="msvThemeColors" v:val="VT0(36):26"/>
				<v:ud v:nameU="msvThemeEffects" v:val="VT0(16):26"/>
			</v:userDefs>
			<v:textBlock v:margins="rect(4,4,4,4)" v:verticalAlign="0"/>
			<v:textRect cx="73.1943" cy="748.125" width="146.39" height="87.75"/>
			<path d="M0 792 L146.39 792 L146.39 704.25 L0 704.25 L0 792 Z" class="st16"/>
			<text x="4" y="715.45" class="st17" v:langID="1033"><v:paragraph/><v:tabList/>CREATE PROCEDURE SPROC1<v:newlineChar/><tspan
						x="4" dy="1.2em" class="st5">@</tspan>Parm1 varchar(50)<v:newlineChar/><tspan x="4" dy="1.2em" class="st5">AS BEGIN<v:newlineChar/></tspan><tspan
						x="4" dy="1.2em" class="st5">  </tspan>UPDATE tablex SET<v:newlineChar/><tspan x="4" dy="1.2em" class="st5">    </tspan>field1 = @Parm1<v:newlineChar/><tspan
						x="4" dy="1.2em" class="st5">  </tspan>OUTPUT INSERTED.field1<v:newlineChar/><tspan x="4" dy="1.2em"
						class="st5">  </tspan>WHERE pk = @Parm2<v:newlineChar/><tspan x="4" dy="1.2em" class="st5">END</tspan></text>		</g>
		<g id="shape35-119" v:mID="35" v:groupContext="shape" transform="translate(887.761,232.667) rotate(71.5021) scale(-1,1)">
			<title>45 degree single.35</title>
			<desc>3</desc>
			<v:userDefs>
				<v:ud v:nameU="visVersion" v:val="VT0(14):26"/>
				<v:ud v:nameU="msvThemeColors" v:val="VT0(36):26"/>
				<v:ud v:nameU="msvThemeEffects" v:val="VT0(16):26"/>
			</v:userDefs>
			<v:textBlock v:margins="rect(4,4,4,4)"/>
			<v:textRect cx="50.8231" cy="774" width="101.65" height="36" transform="rotate(-86.5021)"/>
			<g id="shadow35-120" v:groupContext="shadow" v:shadowOffsetX="1.44" v:shadowOffsetY="-1.44" v:shadowType="1"
					transform="matrix(1,-1.21431E-017,-1.21431E-017,1,-1.82247,-0.908736)" class="st1">
				<path d="M0 774 L18 756 L18 767.88 L101.65 767.88 L101.65 780.12 L18 780.12 L18 792 L0 774 Z" class="st2"/>
			</g>
			<path d="M0 774 L18 756 L18 767.88 L101.65 767.88 L101.65 780.12 L18 780.12 L18 792 L0 774 Z" class="st3"/>
			<text x="-779.21" y="0.69" transform="rotate(86.5021) scale(-1,1)" class="st4" v:langID="1033"><v:paragraph
						v:horizAlign="1"/><v:tabList/>3</text>		</g>
		<g id="shape18-125" v:mID="18" v:groupContext="shape" transform="translate(-451.274,867.768) rotate(63.624) scale(1,-1)">
			<title>45 degree single.18</title>
			<desc>5</desc>
			<v:userDefs>
				<v:ud v:nameU="visVersion" v:val="VT0(14):26"/>
				<v:ud v:nameU="msvThemeColors" v:val="VT0(36):26"/>
				<v:ud v:nameU="msvThemeEffects" v:val="VT0(16):26"/>
			</v:userDefs>
			<v:textBlock v:margins="rect(4,4,4,4)"/>
			<v:textRect cx="60.4639" cy="774" width="120.93" height="36" transform="rotate(-78.624)"/>
			<g id="shadow18-126" v:groupContext="shadow" v:shadowOffsetX="1.44" v:shadowOffsetY="-1.44" v:shadowType="1"
					transform="matrix(1,-2.17383E-017,-2.17383E-017,1,1.92983,0.65036)" class="st1">
				<path d="M0 774 L18 756 L18 767.88 L120.93 767.88 L120.93 780.12 L18 780.12 L18 792 L0 774 Z" class="st2"/>
			</g>
			<path d="M0 774 L18 756 L18 767.88 L120.93 767.88 L120.93 780.12 L18 780.12 L18 792 L0 774 Z" class="st3"/>
			<text x="767.17" y="-89.19" transform="rotate(78.624) scale(1,-1)" class="st4" v:langID="1033"><v:paragraph
						v:horizAlign="1"/><v:tabList/>5</text>		</g>
		<g id="shape4-131" v:mID="4" v:groupContext="shape" transform="translate(-163.673,-207.55) rotate(-43.591) scale(-1,1)">
			<title>45 degree single.4</title>
			<desc>6</desc>
			<v:userDefs>
				<v:ud v:nameU="visVersion" v:val="VT0(14):26"/>
				<v:ud v:nameU="msvThemeColors" v:val="VT0(36):26"/>
				<v:ud v:nameU="msvThemeEffects" v:val="VT0(16):26"/>
			</v:userDefs>
			<v:textBlock v:margins="rect(4,4,4,4)"/>
			<v:textRect cx="90.7828" cy="774" width="181.57" height="36" transform="rotate(38.591)"/>
			<g id="shadow4-132" v:groupContext="shadow" v:shadowOffsetX="1.44" v:shadowOffsetY="-1.44" v:shadowType="1"
					transform="matrix(1,-1.43115E-017,-1.04626E-017,1,-0.0500745,2.03585)" class="st1">
				<path d="M0 774 L18 756 L18 767.88 L181.57 767.88 L181.57 780.12 L18 780.12 L18 792 L0 774 Z" class="st2"/>
			</g>
			<path d="M0 774 L18 756 L18 767.88 L181.57 767.88 L181.57 780.12 L18 780.12 L18 792 L0 774 Z" class="st3"/>
			<text x="408.28" y="665.8" transform="rotate(-38.591) scale(-1,1)" class="st4" v:langID="1033"><v:paragraph
						v:horizAlign="1"/><v:tabList/>6</text>		</g>
		<g id="shape6-137" v:mID="6" v:groupContext="shape" transform="translate(60.6807,-268.089)">
			<title>Sheet.6</title>
			<desc>TableCache(Proc p) { DataTable-1.Merge(p.Execute().Tables[0]) }</desc>
			<v:userDefs>
				<v:ud v:nameU="msvThemeColors" v:val="VT0(36):26"/>
				<v:ud v:nameU="msvThemeEffects" v:val="VT0(16):26"/>
			</v:userDefs>
			<v:textBlock v:margins="rect(4,4,4,4)" v:verticalAlign="0"/>
			<v:textRect cx="110.319" cy="769.161" width="220.64" height="45.6781"/>
			<path d="M0 792 L220.64 792 L220.64 746.32 L0 746.32 L0 792 Z" class="st16"/>
			<text x="4" y="757.52" class="st17" v:langID="1033"><v:paragraph/><v:tabList/>TableCache(Proc p)<v:newlineChar/><tspan
						x="4" dy="1.2em" class="st5">{<v:newlineChar/></tspan><tspan x="4" dy="1.2em" class="st5">  </tspan>DataTable-1.Merge(p.Execute().Tables[0])<v:newlineChar/><tspan
						x="4" dy="1.2em" class="st5">}</tspan></text>		</g>
		<g id="shape13-143" v:mID="13" v:groupContext="shape" transform="translate(775.68,103.968) rotate(46.9579) scale(-1,1)">
			<title>45 degree single.13</title>
			<desc>4</desc>
			<v:userDefs>
				<v:ud v:nameU="visVersion" v:val="VT0(14):26"/>
				<v:ud v:nameU="msvThemeColors" v:val="VT0(36):26"/>
				<v:ud v:nameU="msvThemeEffects" v:val="VT0(16):26"/>
			</v:userDefs>
			<v:textBlock v:margins="rect(4,4,4,4)"/>
			<v:textRect cx="74.1183" cy="774" width="148.24" height="36" transform="rotate(-46.9579)"/>
			<g id="shadow13-144" v:groupContext="shadow" v:shadowOffsetX="1.44" v:shadowOffsetY="-1.44" v:shadowType="1"
					transform="matrix(1,6.66784E-018,1.74014E-017,1,-2.03528,-0.0695767)" class="st1">
				<path d="M0 774 L18 756 L18 767.88 L148.24 767.88 L148.24 780.12 L18 780.12 L18 792 L0 774 Z" class="st2"/>
			</g>
			<path d="M0 774 L18 756 L18 767.88 L148.24 767.88 L148.24 780.12 L18 780.12 L18 792 L0 774 Z" class="st3"/>
			<text x="-619.82" y="478.31" transform="rotate(46.9579) scale(-1,1)" class="st4" v:langID="1033"><v:paragraph
						v:horizAlign="1"/><v:tabList/>4</text>		</g>
		<g id="group7-149" transform="translate(81,-688.5)" v:mID="7" v:groupContext="group">
			<v:userDefs>
				<v:ud v:nameU="FillBkgndIn" v:prompt="" v:val="VT5(#f0f0f0)"/>
				<v:ud v:nameU="LineColor" v:prompt="" v:val="VT5(#797979)"/>
				<v:ud v:nameU="BaseColor" v:prompt="" v:val="VT5(#ffffff)"/>
				<v:ud v:nameU="HColor1" v:prompt="" v:val="VT5(#ffffff)"/>
				<v:ud v:nameU="HColor2" v:prompt="" v:val="VT5(#fefefe)"/>
				<v:ud v:nameU="HColor3" v:prompt="" v:val="VT5(#e9e9e9)"/>
				<v:ud v:nameU="HColor4" v:prompt="" v:val="VT5(#efefef)"/>
				<v:ud v:nameU="AccentColor" v:prompt="" v:val="VT5(#ffffff)"/>
				<v:ud v:nameU="State" v:prompt="" v:val="VT0(0):26"/>
				<v:ud v:nameU="TextColor" v:prompt="" v:val="VT5(#000000)"/>
				<v:ud v:nameU="visVersion" v:prompt="" v:val="VT0(14):26"/>
				<v:ud v:nameU="msvThemeColors" v:val="VT0(36):26"/>
				<v:ud v:nameU="msvThemeEffects" v:val="VT0(16):26"/>
			</v:userDefs>
			<title>Button</title>
			<desc>Do It</desc>
			<g id="shape8-150" v:mID="8" v:groupContext="shape" transform="translate(0.375,-0.5625)">
				<title>Sheet.8</title>
				<path d="M0 780.67 L0 790.38 A1.62 1.62 -180 0 0 1.62 792 L56.13 792 A1.62 1.62 -180 0 0 57.75 790.38 L57.75 780.67
							 L0 780.67 Z" class="st27"/>
				<path d="M0 780.67 L0 790.38 A1.62 1.62 -180 0 0 1.62 792 L56.13 792 A1.62 1.62 -180 0 0 57.75 790.38 L57.75 780.67"
						class="st28"/>
			</g>
			<g id="shape9-155" v:mID="9" v:groupContext="shape" transform="translate(0.375,-11.5125)">
				<title>Sheet.9</title>
				<path d="M57.75 792 L57.75 782.29 A1.62 1.62 -180 0 0 56.13 780.67 L1.62 780.67 A1.62 1.62 -180 0 0 -0 782.29 L0
							 792 L57.75 792 Z" class="st29"/>
				<path d="M57.75 792 L57.75 782.29 A1.62 1.62 -180 0 0 56.13 780.67 L1.62 780.67 A1.62 1.62 -180 0 0 -0 782.29 L0
							 792" class="st28"/>
			</g>
			<g id="shape10-160" v:mID="10" v:groupContext="shape">
				<title>Sheet.10</title>
				<v:userDefs>
					<v:ud v:nameU="msvThemeColors" v:val="VT0(36):26"/>
					<v:ud v:nameU="msvThemeEffects" v:val="VT0(16):26"/>
				</v:userDefs>
				<rect x="0" y="768.6" width="58.5" height="23.4" rx="1.62" ry="1.62" class="st30"/>
				<rect x="0" y="768.6" width="58.5" height="23.4" rx="1.62" ry="1.62" class="st31"/>
			</g>
			<g id="shape7-163" v:mID="7" v:groupContext="groupContent">
				<v:textBlock v:margins="rect(4,4,4,4)"/>
				<v:textRect cx="29.25" cy="780.3" width="58.5" height="23.4"/>
				<text x="15.56" y="784.5" class="st4" v:langID="1033"><v:paragraph v:horizAlign="1"/><v:tabList/>Do It</text>			</g>
		</g>
	</g>
</svg>
